<svg width="766" height="650" viewBox="0 0 766 650" fill="none" xmlns="http://www.w3.org/2000/svg">
<g clip-path="url(#clip0_4241_3679)">
<rect width="766" height="650" fill="white"/>
<g clip-path="url(#clip1_4241_3679)">
<path d="M592.038 126.192L387.256 64.7354C384.419 63.9476 381.266 63.9476 378.428 64.7354L173.647 126.192C167.184 128.083 162.77 134.071 162.77 140.847V366.03C162.77 395.34 174.676 425.215 198.082 455.063C215.96 477.862 240.638 500.773 271.545 523.138C323.397 560.661 374.5 583.619 376.694 584.595C378.756 585.512 380.793 585.855 383 585.855C385.207 585.855 387.271 585.421 389.306 584.595C391.53 583.691 442.603 560.661 494.455 523.138C525.361 500.773 550.077 477.892 567.918 455.063C591.214 425.253 603.23 395.182 603.23 366.03V140.847C602.915 134.071 598.501 128.083 592.038 126.192ZM587.624 364.927C587.624 424.02 532.458 476.351 486.1 510.059C446.856 538.593 406.962 558.751 391.671 566.158L382.843 570.412L374.015 566.158C358.723 558.752 318.992 538.587 279.585 510.059C233.232 476.502 178.062 424.02 178.062 364.927V141.635L382.843 80.1782L587.624 141.635L587.624 364.927Z" fill="#071545"/>
<path d="M572.332 362.248C572.332 414.093 520.27 462.731 476.641 494.301C437.51 522.617 397.818 542.836 382.842 550.085C367.866 542.836 328.141 522.664 289.043 494.301C245.377 462.625 193.353 414.093 193.353 362.248V148.411L382.842 91.5244L572.331 148.411L572.332 362.248Z" fill="#0F9BFF"/>
<path d="M480.898 260.451C500.604 180.872 387.73 140.847 352.733 214.91C331.923 196 297.399 209.867 297.399 240.123C230.715 241.068 228.666 340.659 295.35 344.126H306.07C306.07 302.052 340.752 267.542 382.843 267.542C424.934 267.542 459.617 302.21 459.617 344.284C483.894 344.284 481.529 344.284 481.529 344.126C531.503 339.241 532.448 265.02 480.898 260.451Z" fill="white"/>
<path fill-rule="evenodd" clip-rule="evenodd" d="M490.207 254.005C514.94 260.005 527.208 281.341 527.167 302.186C527.122 324.879 512.459 348.379 483.562 351.83C483.135 351.943 482.787 351.996 482.616 352.02C481.852 352.127 480.78 352.135 479.913 352.142L479.74 352.143C477.265 352.163 471.772 352.163 459.761 352.163H451.733V344.284C451.733 306.561 420.58 275.421 382.842 275.421C345.083 275.421 313.951 306.425 313.951 344.126V352.005H295.144L294.94 351.995C276.15 351.018 261.689 343.17 252.086 331.569C242.597 320.104 238.191 305.398 238.48 291.02C238.77 276.643 243.764 262.121 253.695 251.03C262.427 241.278 274.707 234.491 290.107 232.704C294.785 204.067 326.259 190.325 350.01 203.339C391.838 134.466 502.192 173.766 490.207 254.005ZM473.246 258.558C490.647 188.285 390.825 152.743 359.859 218.275L355.31 227.901L347.43 220.74C331.566 206.325 305.281 216.866 305.281 240.123V247.891L297.51 248.001C282.963 248.207 272.448 253.714 265.442 261.539C258.318 269.496 254.465 280.266 254.242 291.337C254.019 302.409 257.435 313.31 264.233 321.523C270.887 329.563 281.113 335.447 295.561 336.247H298.556C302.586 293.456 339.073 259.663 382.842 259.663C426.631 259.663 463.1 293.614 467.129 336.404C474.167 336.404 477.776 336.4 479.613 336.385C479.658 336.385 479.701 336.384 479.743 336.384L480.762 336.284C501.001 334.306 511.369 318.606 511.402 302.155C511.434 285.818 501.252 270.165 480.201 268.299L471.035 267.486L473.246 258.558Z" fill="#071545"/>
<path fill-rule="evenodd" clip-rule="evenodd" d="M382.842 275.421C345.104 275.421 313.951 306.561 313.951 344.284C313.951 382.006 345.104 413.147 382.842 413.147C397.677 413.147 411.965 408.349 423.878 399.559L433.24 412.237C418.67 422.988 401.114 428.905 382.842 428.905C336.398 428.905 298.187 390.709 298.187 344.284C298.187 297.858 336.398 259.663 382.842 259.663C429.287 259.663 467.498 297.858 467.498 344.284C467.498 358.021 464.187 370.916 458.267 382.403L444.253 375.186C449.054 365.871 451.733 355.444 451.733 344.284C451.733 306.561 420.58 275.421 382.842 275.421Z" fill="#071545"/>
<path fill-rule="evenodd" clip-rule="evenodd" d="M420.867 409.468L394.711 398.301L399.665 386.708L436.252 402.329L423.552 443.677L411.496 439.977L420.867 409.468Z" fill="#071545"/>
</g>
</g>
<defs>
<clipPath id="clip0_4241_3679">
<rect width="766" height="650" fill="white"/>
</clipPath>
<clipPath id="clip1_4241_3679">
<rect width="1972" height="650" fill="white" transform="translate(-603)"/>
</clipPath>
</defs>
</svg>
